<svg width="13" height="13" viewBox="0 0 13 13" fill="none" xmlns="http://www.w3.org/2000/svg">
<path d="M5.68115 3.31982L3.92589 0.39457C3.85372 0.274234 3.75161 0.174641 3.62951 0.105494C3.50742 0.0363465 3.36949 1.72282e-06 3.22917 0H0.406995C0.078185 0 -0.114277 0.369941 0.0741225 0.639336L2.89935 4.67543C3.65396 3.97033 4.61373 3.48639 5.68115 3.31982ZM12.593 0H9.77083C9.48544 0 9.22087 0.149805 9.07411 0.39457L7.31885 3.31982C8.38628 3.48639 9.34604 3.97033 10.1007 4.67518L12.9259 0.639336C13.1143 0.369941 12.9218 0 12.593 0ZM6.5 4.0625C4.03202 4.0625 2.03124 6.06328 2.03124 8.53125C2.03124 10.9992 4.03202 13 6.5 13C8.96798 13 10.9688 10.9992 10.9688 8.53125C10.9688 6.06328 8.96798 4.0625 6.5 4.0625ZM8.84915 8.05543L7.88608 8.99387L8.11383 10.3198C8.15446 10.5574 7.90411 10.739 7.69108 10.6267L6.5 10.0009L5.30918 10.6267C5.09589 10.7397 4.8458 10.5572 4.88642 10.3198L5.11418 8.99387L4.15111 8.05543C3.97794 7.88684 4.07367 7.59256 4.31234 7.55803L5.64357 7.36404L6.23848 6.15748C6.29205 6.04881 6.39564 5.99523 6.49949 5.99523C6.60385 5.99523 6.7082 6.04957 6.76178 6.15748L7.35668 7.36404L8.68792 7.55803C8.92659 7.59256 9.02231 7.88684 8.84915 8.05543Z" fill="#21873D"/>
</svg>
