<svg width="20" height="20" viewBox="0 0 20 20" fill="none" xmlns="http://www.w3.org/2000/svg">
<path d="M19.728 17.2913L15.8332 13.3971C15.6574 13.2214 15.4191 13.1237 15.1691 13.1237H14.5323C15.6105 11.7449 16.2512 10.0107 16.2512 8.12421C16.2512 3.63636 12.6142 0 8.12559 0C3.63698 0 0 3.63636 0 8.12421C0 12.612 3.63698 16.2484 8.12559 16.2484C10.0125 16.2484 11.747 15.6079 13.126 14.5298V15.1665C13.126 15.4165 13.2236 15.6547 13.3994 15.8305L17.2942 19.7246C17.6614 20.0918 18.2552 20.0918 18.6185 19.7246L19.7241 18.6193C20.0913 18.2521 20.0913 17.6584 19.728 17.2913ZM8.12559 13.1237C5.36367 13.1237 3.12523 10.8896 3.12523 8.12421C3.12523 5.36276 5.35977 3.12469 8.12559 3.12469C10.8875 3.12469 13.126 5.35885 13.126 8.12421C13.126 10.8857 10.8914 13.1237 8.12559 13.1237Z" fill="black"/>
</svg>
